<svg xmlns="http://www.w3.org/2000/svg" viewBox="0 0 512 512">
  <rect width="512" height="512" rx="96" fill="#dc2626"/>
  <path d="M256 80c-8 0-15 3-20 8l-120 72c-8 5-12 14-12 23v120c0 48 24 92 64 120l80 56c5 3 10 5 16 5s11-2 16-5l80-56c40-28 64-72 64-120V183c0-9-5-18-12-23L292 88c-5-5-12-8-20-8h-16zm8 72l88 52v96c0 34-17 66-46 86l-58 40-58-40c-29-20-46-52-46-86v-96l88-52h32z" fill="white"/>
  <path d="M240 248v-56c0-8 7-16 16-16s16 8 16 16v56c0 8-7 16-16 16s-16-8-16-16zm0 72c0-8 7-16 16-16s16 8 16 16-7 16-16 16-16-8-16-16z" fill="white"/>
</svg>
